<svg aria-hidden="true" style="position: absolute; width: 0; height: 0; overflow: hidden;" version="1.1" xmlns="http://www.w3.org/2000/svg" xmlns:xlink="http://www.w3.org/1999/xlink">
<defs>
<symbol id="icon-vigeb" viewBox="0 0 80 32">
<path d="M29.616 1.776c-0.912 0.16-1.856 0.64-2.736 1.376-0.864 0.72-1.952 2.432-5.072 7.984-1.648 2.944-3.040 5.344-3.088 5.344-0.128 0-1.68-9.632-1.648-10.288 0.016-0.432 0.192-0.848 0.672-1.472 0.512-0.672 0.656-1.008 0.656-1.488 0-1.376-0.752-1.52-7.936-1.44-5.28 0.048-5.504 0.064-5.936 0.384-0.336 0.256-0.464 0.496-0.496 0.976-0.048 0.56 0.032 0.72 0.816 1.584 0.464 0.528 0.928 1.184 1.040 1.44 0.096 0.256 1.024 5.056 2.048 10.688 1.008 5.616 1.984 10.608 2.16 11.072 0.592 1.584 1.376 2.192 2.864 2.208 0.672 0.016 1.040-0.080 1.552-0.384 1.312-0.8 1.216-0.64 9.488-14.544l3.552-5.968 0.496 0.48c1.12 1.088 3.056 1.328 4.56 0.576 1.632-0.8 2.496-2.288 2.496-4.224 0-1.472-0.256-2.256-1.008-3.088-0.992-1.104-2.608-1.536-4.48-1.216z"></path>
<path d="M63.68 16.96v8.32h3.168l0.352-0.56c0.4-0.64 0.624-0.688 1.056-0.224 0.512 0.576 1.488 0.944 2.592 0.944 2.88 0 4.432-2.256 4.4-6.4-0.016-1.984-0.416-3.456-1.216-4.512-1.392-1.824-3.904-2.064-5.552-0.512l-0.752 0.704 0.016-3.008 0.016-2.992-4.080-0.096v8.336zM70.4 16.672c0.432 0.464 0.64 1.28 0.64 2.528 0 1.92-0.528 2.88-1.6 2.88-1.2 0-1.6-0.736-1.6-3.008 0-1.408 0.256-2.288 0.752-2.576 0.512-0.304 1.44-0.208 1.808 0.176z"></path>
<path d="M40.208 13.12c-2.464 0.512-3.68 1.984-3.536 4.272 0.080 1.328 0.464 2.192 1.248 2.752l0.592 0.432-0.688 0.592c-0.384 0.336-0.72 0.8-0.784 1.072-0.128 0.576 0.288 1.52 0.832 1.872l0.368 0.256-0.768 0.352c-1.744 0.816-2.288 2.56-1.264 4.096 1.28 1.936 6.736 2.304 9.76 0.656 1.488-0.8 2.192-2 2.192-3.728-0.016-2.432-1.472-3.344-5.376-3.344-1.84 0-2.512-0.192-2.432-0.704 0.048-0.288 0.176-0.336 1.472-0.368 2.544-0.064 4.048-0.784 4.752-2.24 0.352-0.72 0.464-1.92 0.272-2.992-0.032-0.256 0.112-0.384 0.672-0.592l0.72-0.272 0.048-0.944 0.048-0.96-2.688-0.112c-1.472-0.048-3.152-0.128-3.728-0.176-0.576-0.032-1.344 0-1.712 0.080zM42.64 15.68c0.32 0.352 0.496 1.648 0.336 2.32-0.384 1.504-2.176 1.28-2.416-0.288-0.128-0.832 0.144-1.968 0.528-2.176 0.464-0.272 1.232-0.208 1.552 0.144zM44.416 26.144c0.304 0.432 0.288 0.528-0.16 0.976-0.48 0.48-1.392 0.72-2.8 0.736-1.312 0.016-1.952-0.24-2.176-0.88-0.128-0.4-0.096-0.496 0.304-0.848 0.448-0.384 0.528-0.384 2.528-0.336 1.84 0.048 2.096 0.080 2.304 0.352z"></path>
<path d="M53.92 13.168c-1.856 0.432-3.184 1.552-3.856 3.248-0.304 0.8-0.368 1.248-0.368 2.864-0.016 1.776 0.032 2 0.432 2.896 0.576 1.232 1.504 2.16 2.752 2.72 1.648 0.752 5.424 0.72 7.056-0.064l0.544-0.256v-2.912l-1.152 0.384c-1.488 0.512-3.616 0.576-4.4 0.144-0.592-0.32-0.96-0.816-1.040-1.392l-0.048-0.4 3.744-0.048 3.744-0.032-0.080-1.776c-0.080-1.552-0.144-1.872-0.592-2.784-0.592-1.2-1.344-1.872-2.56-2.336-1.088-0.4-3.024-0.528-4.176-0.256zM56.8 16.272c0.256 0.256 0.528 0.688 0.576 0.96l0.112 0.528h-1.792c-1.952 0-2.016-0.032-1.536-0.96 0.544-1.056 1.792-1.296 2.64-0.528z"></path>
<path d="M31.872 13.92c-0.736 0.448-1.088 1.312-0.848 2.096 0.56 1.888 3.376 1.2 3.376-0.816 0-0.672-0.24-1.072-0.8-1.36-0.624-0.32-1.104-0.304-1.728 0.080z"></path>
<path d="M29.856 17.856c-0.928 0.224-1.536 0.592-1.536 0.912 0 0.096 0.16 0.336 0.336 0.528l0.336 0.368-0.896 3.008c-0.784 2.624-0.96 3.056-1.392 3.44-0.304 0.256-0.464 0.528-0.432 0.72 0.048 0.256 0.272 0.288 2.736 0.336 2.672 0.032 3.312-0.064 3.312-0.512 0-0.128-0.112-0.304-0.24-0.416-0.368-0.304-0.304-0.72 0.64-3.776 0.48-1.584 0.88-3.072 0.88-3.312 0-1.376-1.408-1.856-3.744-1.296z"></path>
</symbol>
<symbol id="icon-search" viewBox="0 0 32 32">
<path d="M31.008 27.231l-7.58-6.447c-0.784-0.705-1.622-1.029-2.299-0.998 1.789-2.096 2.87-4.815 2.87-7.787 0-6.627-5.373-12-12-12s-12 5.373-12 12 5.373 12 12 12c2.972 0 5.691-1.081 7.787-2.87-0.031 0.677 0.293 1.515 0.998 2.299l6.447 7.58c1.104 1.226 2.907 1.33 4.007 0.23s0.997-2.903-0.23-4.007zM12 20c-4.418 0-8-3.582-8-8s3.582-8 8-8 8 3.582 8 8-3.582 8-8 8z"></path>
</symbol>
</defs>
</svg>
