<!-- Generated by IcoMoon.io -->
<svg version="1.1" xmlns="http://www.w3.org/2000/svg" width="43" height="32" viewBox="0 0 43 32">
<title>owl</title>
<path d="M6.080 0.121c-2.828 0.545-4.956 2.448-5.786 5.198-0.208 0.683-0.234 0.925-0.242 1.989 0 1.323 0.095 1.833 0.562 2.932 0.372 0.865 0.934 1.669 1.678 2.378l0.657 0.623-0.597 1.228c-1.254 2.543-1.92 4.904-2.179 7.715-0.043 0.519-0.086 2.949-0.086 5.379v4.437h43.157v-4.264c0-2.344-0.043-4.791-0.095-5.431-0.225-2.819-0.951-5.449-2.214-8l-0.553-1.133 0.614-0.597c0.995-0.96 1.652-2.084 2.041-3.494 0.121-0.424 0.156-0.865 0.156-1.773-0.009-1.064-0.035-1.306-0.242-1.989-0.761-2.517-2.698-4.402-5.198-5.068-0.995-0.268-2.664-0.277-3.641-0.009-1.816 0.484-3.356 1.574-4.298 3.027-0.251 0.389-0.389 0.536-0.484 0.502-2.032-0.701-4.662-1.245-6.495-1.332-2.871-0.147-6.089 0.311-8.389 1.185-0.259 0.104-0.519 0.182-0.571 0.182-0.061 0-0.259-0.251-0.458-0.554-0.692-1.055-1.894-2.076-3.070-2.595-1.254-0.553-3.010-0.77-4.264-0.536zM15.075 15.559c1.885 0.666 3.139 2.171 3.442 4.151 0.182 1.176-0.112 2.43-0.83 3.503-1.064 1.609-3.2 2.499-5.077 2.119-3.347-0.666-5.077-4.16-3.598-7.23 0.432-0.899 1.392-1.834 2.326-2.266 0.398-0.19 0.925-0.381 1.159-0.432 0.657-0.13 1.989-0.052 2.577 0.156zM31.628 15.438c1.833 0.432 3.304 1.868 3.788 3.676 0.164 0.631 0.164 1.877-0.009 2.543-0.562 2.179-2.638 3.779-4.904 3.771-2.231-0.009-4.29-1.609-4.861-3.771-0.173-0.657-0.173-1.92 0-2.586 0.156-0.588 0.631-1.496 1.021-1.946 1.245-1.444 3.191-2.11 4.964-1.687zM26.906 28.359c0.225 0.233 0.251 0.303 0.251 0.856 0 0.536-0.026 0.623-0.225 0.83l-0.233 0.225h-3.165c-3.624 0-3.399-0.043-3.814 0.787-0.147 0.277-0.303 0.51-0.346 0.51s-0.069-0.233-0.061-0.528c0.017-0.666-0.104-0.77-0.848-0.77-0.467 0-0.553-0.026-0.761-0.242s-0.233-0.311-0.233-0.83c0-0.528 0.026-0.605 0.251-0.839l0.251-0.251h8.683l0.251 0.251z"></path>
<path d="M12.852 18.465c-0.804 0.285-1.28 0.899-1.332 1.721-0.017 0.303 0.009 0.692 0.069 0.865 0.294 0.908 1.367 1.505 2.361 1.315 0.441-0.087 1.072-0.545 1.323-0.96 0.943-1.617-0.666-3.572-2.422-2.941z"></path>
<path d="M29.665 18.43c-0.216 0.095-0.519 0.294-0.675 0.45-0.311 0.303-0.623 1.038-0.623 1.488s0.311 1.185 0.623 1.488c1.176 1.133 3.113 0.657 3.572-0.873 0.164-0.545 0.164-0.787 0-1.271-0.407-1.185-1.773-1.79-2.897-1.28z"></path>
<path d="M17.903 29.293c0 0.13 0.017 0.13 0.078 0.035 0.069-0.104 0.104-0.112 0.216-0.009 0.121 0.095 0.138 0.087 0.087-0.035-0.069-0.19-0.381-0.182-0.381 0.009z"></path>
<path d="M18.768 29.293c0 0.13 0.017 0.13 0.078 0.035 0.069-0.112 0.104-0.112 0.233 0 0.13 0.104 0.147 0.104 0.104-0.009-0.061-0.199-0.415-0.225-0.415-0.026z"></path>
</svg>
